<svg xmlns="http://www.w3.org/2000/svg" width="49" height="49" fill="none" viewBox="0 0 49 49"><path fill="#ecd979" d="M23.468.502a1 1 0 0 1 1.734 0l2.818 4.904a1 1 0 0 0 1.431.328l4.718-3.226a1 1 0 0 1 1.562.76l.366 5.577a1 1 0 0 0 1.154.922l5.65-.895a1 1 0 0 1 1.082 1.37l-2.123 5.144a1 1 0 0 0 .645 1.341l5.444 1.586a1 1 0 0 1 .386 1.707l-4.182 3.726a1 1 0 0 0 0 1.493l4.182 3.726a1 1 0 0 1-.386 1.707l-5.444 1.586a1 1 0 0 0-.645 1.341l2.123 5.145a1 1 0 0 1-1.081 1.369l-5.65-.895a1 1 0 0 0-1.155.922l-.366 5.577a1 1 0 0 1-1.562.76l-4.718-3.226a1 1 0 0 0-1.431.328l-2.818 4.904a1 1 0 0 1-1.734 0L20.65 43.58a1 1 0 0 0-1.431-.328L14.5 46.477a1 1 0 0 1-1.562-.76l-.366-5.577a1 1 0 0 0-1.154-.922l-5.65.895a1 1 0 0 1-1.082-1.37L6.81 33.6a1 1 0 0 0-.645-1.341L.72 30.672a1 1 0 0 1-.386-1.707l4.182-3.726a1 1 0 0 0 0-1.493L.335 20.02a1 1 0 0 1 .386-1.707l5.444-1.586a1 1 0 0 0 .645-1.341L4.687 10.24a1 1 0 0 1 1.081-1.369l5.65.895a1 1 0 0 0 1.155-.922l.366-5.577a1 1 0 0 1 1.562-.76l4.718 3.226a1 1 0 0 0 1.431-.328z"/></svg>