<svg xmlns="http://www.w3.org/2000/svg" width="509" height="337" fill="none" viewBox="0 0 509 337"><rect width="508" height="50" x=".5" y=".5" stroke="#fcf9f9" stroke-opacity=".1" rx="15"/><path fill="#fcf9f9" fill-opacity=".5" d="M17.62 31.5V19.98h7.2v1.128h-6.024v3.984h5.064v1.128h-5.064v4.152h6.024V31.5zm15.045 0v-4.408q0-.72-.136-1.32a3 3 0 0 0-.44-1.056 2 2 0 0 0-.776-.704q-.473-.248-1.152-.248-.624 0-1.104.216a2.2 2.2 0 0 0-.8.624 2.8 2.8 0 0 0-.488.976 4.7 4.7 0 0 0-.168 1.312l-.832-.184q0-1.328.464-2.232t1.28-1.368q.816-.465 1.872-.464.776 0 1.352.24.584.24.984.648.407.408.656.936.247.52.36 1.112.112.585.112 1.168V31.5zm-6.248 0v-8.64h1.064v2.128h.12V31.5zm13.892 0a5.8 5.8 0 0 1-1.44.12 3.2 3.2 0 0 1-1.264-.304 1.82 1.82 0 0 1-.84-.848 2.5 2.5 0 0 1-.256-.968q-.015-.496-.016-1.128V20.46h1.168v7.864q0 .545.008.912.016.36.168.64.288.535.912.64.632.104 1.56-.048zm-5.664-7.632V22.86h5.664v1.008zm10.39 7.872q-1.265 0-2.192-.56a3.8 3.8 0 0 1-1.432-1.576q-.512-1.016-.512-2.384 0-1.416.504-2.448t1.416-1.592q.92-.56 2.168-.56 1.28 0 2.184.592.903.585 1.368 1.68.464 1.096.424 2.616h-1.2v-.416q-.032-1.68-.728-2.536-.688-.856-2.016-.856-1.392 0-2.136.904-.736.904-.736 2.576 0 1.632.736 2.536.744.896 2.104.896.927 0 1.616-.424.697-.432 1.096-1.24l1.096.424a3.9 3.9 0 0 1-1.512 1.752q-.992.616-2.248.616m-3.304-4.232v-.984h6.6v.984zm8.687 3.992v-8.64h1.056v2.08l-.208-.272a3 3 0 0 1 .376-.704q.233-.328.504-.536a2.3 2.3 0 0 1 .784-.448q.448-.16.904-.184.456-.032.832.064v1.104a2.9 2.9 0 0 0-1.032-.056 1.97 1.97 0 0 0-1.032.448 2.15 2.15 0 0 0-.648.808q-.216.464-.288.992-.072.52-.072 1.032V31.5zm9.56 3.84 1.673-4.536.024 1.344-3.784-9.288h1.248l3.104 7.768h-.512l2.864-7.768h1.2l-4.64 12.48zm10.182-3.6q-1.288 0-2.2-.584a3.8 3.8 0 0 1-1.4-1.616q-.488-1.032-.488-2.368 0-1.36.496-2.384.495-1.024 1.408-1.592.92-.576 2.184-.576 1.296 0 2.208.584.92.576 1.4 1.608.488 1.025.488 2.36 0 1.36-.488 2.392a3.74 3.74 0 0 1-1.408 1.6q-.92.576-2.2.576m0-1.128q1.44 0 2.144-.952.704-.96.704-2.488 0-1.567-.712-2.496-.704-.928-2.136-.928-.968 0-1.6.44-.624.431-.936 1.208-.304.768-.304 1.776 0 1.56.72 2.504.72.936 2.12.936m8.845 1.104q-.777 0-1.36-.24a3 3 0 0 1-.984-.648 3.4 3.4 0 0 1-.648-.928 4.7 4.7 0 0 1-.36-1.112 6.3 6.3 0 0 1-.112-1.176V22.86h1.184v4.408q0 .713.136 1.32.135.608.432 1.064.303.448.776.696.48.248 1.16.248a2.6 2.6 0 0 0 1.096-.216q.48-.216.8-.616.328-.408.496-.984.168-.585.168-1.312l.832.184q0 1.328-.464 2.232-.465.905-1.28 1.368-.816.465-1.872.464m2.904-.216v-2.128h-.12V22.86h1.176v8.64zm2.972 0v-8.64h1.056v2.08l-.208-.272a3 3 0 0 1 .376-.704q.231-.328.504-.536a2.3 2.3 0 0 1 .784-.448q.447-.16.904-.184.456-.032.832.064v1.104a2.9 2.9 0 0 0-1.032-.056 1.97 1.97 0 0 0-1.032.448 2.15 2.15 0 0 0-.648.808q-.216.464-.288.992-.072.52-.072 1.032V31.5zm9.184 0v-9.28q0-.336.032-.664.04-.329.152-.624.112-.305.352-.56.264-.288.576-.416.312-.136.648-.176.345-.04.672-.04h1.104v.992h-1.024q-.672 0-1.008.328-.328.329-.328 1.032V31.5zm-1.496-7.632V22.86h5.032v1.008zm9.296 7.848q-.775 0-1.36-.24a3 3 0 0 1-.984-.648 3.4 3.4 0 0 1-.648-.928 4.7 4.7 0 0 1-.36-1.112 6.3 6.3 0 0 1-.112-1.176V22.86h1.184v4.408q0 .713.136 1.32t.432 1.064q.305.448.776.696.48.248 1.16.248.624 0 1.096-.216.48-.216.8-.616.328-.408.496-.984.168-.585.168-1.312l.832.184q0 1.328-.464 2.232t-1.28 1.368q-.816.465-1.872.464m2.904-.216v-2.128h-.12V22.86h1.176v8.64zm3.132 0V19.74h1.176V31.5zm3.415 0V19.74h1.176V31.5zm12.377 0v-4.408q0-.72-.136-1.32a3 3 0 0 0-.44-1.056 2 2 0 0 0-.776-.704q-.473-.248-1.152-.248-.624 0-1.104.216a2.2 2.2 0 0 0-.8.624 2.8 2.8 0 0 0-.488.976 4.7 4.7 0 0 0-.168 1.312l-.832-.184q0-1.328.464-2.232t1.28-1.368q.816-.465 1.872-.464.776 0 1.352.24.584.24.984.648.408.408.656.936.248.52.36 1.112.112.585.112 1.168V31.5zm-6.248 0v-8.64h1.064v2.128h.12V31.5zm11.66.24q-.976 0-1.64-.352a2.4 2.4 0 0 1-.984-.936 2.55 2.55 0 0 1-.328-1.272q0-.705.28-1.2.288-.503.776-.824a3.9 3.9 0 0 1 1.144-.488q.656-.16 1.448-.28a36 36 0 0 1 1.56-.216 50 50 0 0 0 1.344-.184l-.416.256q.024-1.28-.496-1.896t-1.808-.616q-.888 0-1.504.4-.608.4-.856 1.264l-1.144-.336q.296-1.16 1.192-1.8t2.328-.64q1.184 0 2.008.448.833.44 1.176 1.28.16.375.208.84t.048.944V31.5h-1.048v-2.168l.304.128q-.44 1.112-1.368 1.696-.928.585-2.224.584m.136-1.016q.823 0 1.44-.296.616-.296.992-.808.376-.52.488-1.168.096-.416.104-.912.008-.504.008-.752l.448.232q-.6.08-1.304.16a37 37 0 0 0-1.376.184q-.672.104-1.216.248-.368.104-.712.296a1.64 1.64 0 0 0-.568.496q-.216.312-.216.776 0 .375.184.728a1.5 1.5 0 0 0 .608.584q.424.232 1.12.232m16.267.776.008-5.672q0-1-.56-1.568-.552-.576-1.408-.576-.489 0-.952.224-.465.225-.768.72-.297.496-.296 1.296l-.696-.2q-.024-.928.36-1.624a2.8 2.8 0 0 1 1.072-1.08 3.1 3.1 0 0 1 1.552-.392q1.303 0 2.088.808.783.8.784 2.168l-.008 5.896zm-10.312 0v-8.64h1.056v2.128h.128V31.5zm5.168 0 .008-5.592q0-1.032-.552-1.624-.544-.6-1.44-.6-.897 0-1.448.616-.552.608-.552 1.624l-.704-.384q0-.832.392-1.488.391-.665 1.072-1.04a3.1 3.1 0 0 1 1.544-.384q.823 0 1.464.352.648.352 1.016 1.024t.368 1.632l-.008 5.864zm11.691.24q-1.263 0-2.192-.56a3.8 3.8 0 0 1-1.432-1.576q-.512-1.016-.512-2.384 0-1.416.504-2.448t1.416-1.592q.92-.56 2.168-.56 1.281 0 2.184.592.905.585 1.368 1.68.465 1.096.424 2.616h-1.2v-.416q-.032-1.68-.728-2.536-.687-.856-2.016-.856-1.392 0-2.136.904-.736.904-.736 2.576 0 1.632.736 2.536.744.896 2.104.896.929 0 1.616-.424.697-.432 1.096-1.24l1.096.424a3.9 3.9 0 0 1-1.512 1.752q-.991.616-2.248.616m-3.304-4.232v-.984h6.6v.984z"/><rect width="508" height="50" x=".5" y="70.5" stroke="#fcf9f9" stroke-opacity=".1" rx="15"/><path fill="#fcf9f9" fill-opacity=".5" d="M17.62 101.5V89.98h7.2v1.128h-6.024v3.984h5.064v1.128h-5.064v4.152h6.024v1.128zm15.045 0v-4.408q0-.72-.136-1.32a3 3 0 0 0-.44-1.056 2 2 0 0 0-.776-.704q-.473-.248-1.152-.248-.624 0-1.104.216a2.2 2.2 0 0 0-.8.624 2.8 2.8 0 0 0-.488.976 4.7 4.7 0 0 0-.168 1.312l-.832-.184q0-1.328.464-2.232t1.28-1.368q.816-.465 1.872-.464.776 0 1.352.24.584.24.984.648.407.408.656.936.247.52.36 1.112.112.585.112 1.168v4.752zm-6.248 0v-8.64h1.064v2.128h.12v6.512zm13.892 0a5.8 5.8 0 0 1-1.44.12 3.2 3.2 0 0 1-1.264-.304 1.82 1.82 0 0 1-.84-.848 2.5 2.5 0 0 1-.256-.968q-.015-.496-.016-1.128V90.46h1.168v7.864q0 .544.008.912.016.36.168.64.288.536.912.64.632.103 1.56-.048zm-5.664-7.632V92.86h5.664v1.008zm10.39 7.872q-1.265 0-2.192-.56a3.8 3.8 0 0 1-1.432-1.576q-.512-1.016-.512-2.384 0-1.416.504-2.448t1.416-1.592q.92-.56 2.168-.56 1.28 0 2.184.592.903.585 1.368 1.68.464 1.096.424 2.616h-1.2v-.416q-.032-1.68-.728-2.536-.688-.855-2.016-.856-1.392 0-2.136.904-.736.904-.736 2.576 0 1.632.736 2.536.744.896 2.104.896.927 0 1.616-.424.697-.432 1.096-1.24l1.096.424a3.9 3.9 0 0 1-1.512 1.752q-.992.616-2.248.616m-3.304-4.232v-.984h6.6v.984zm8.687 3.992v-8.64h1.056v2.08l-.208-.272a3 3 0 0 1 .376-.704q.233-.328.504-.536a2.3 2.3 0 0 1 .784-.448q.448-.16.904-.184.456-.032.832.064v1.104a2.9 2.9 0 0 0-1.032-.056 1.97 1.97 0 0 0-1.032.448 2.15 2.15 0 0 0-.648.808q-.216.465-.288.992-.072.52-.072 1.032v4.312zm9.56 3.84 1.673-4.536.024 1.344-3.784-9.288h1.248l3.104 7.768h-.512l2.864-7.768h1.2l-4.64 12.48zm10.182-3.6q-1.288 0-2.2-.584a3.8 3.8 0 0 1-1.4-1.616q-.488-1.032-.488-2.368 0-1.36.496-2.384.495-1.024 1.408-1.592.92-.576 2.184-.576 1.296 0 2.208.584.92.576 1.4 1.608.488 1.025.488 2.36 0 1.36-.488 2.392a3.74 3.74 0 0 1-1.408 1.6q-.92.576-2.2.576m0-1.128q1.44 0 2.144-.952.704-.96.704-2.488 0-1.567-.712-2.496-.704-.928-2.136-.928-.968 0-1.6.44-.624.431-.936 1.208-.304.768-.304 1.776 0 1.56.72 2.504.72.936 2.12.936m8.845 1.104q-.777 0-1.36-.24a3 3 0 0 1-.984-.648 3.4 3.4 0 0 1-.648-.928 4.7 4.7 0 0 1-.36-1.112 6.3 6.3 0 0 1-.112-1.176V92.86h1.184v4.408q0 .713.136 1.32.135.608.432 1.064.303.449.776.696.48.248 1.16.248a2.6 2.6 0 0 0 1.096-.216 2.1 2.1 0 0 0 .8-.616q.328-.408.496-.984.168-.585.168-1.312l.832.184q0 1.328-.464 2.232-.465.904-1.28 1.368-.816.464-1.872.464m2.904-.216v-2.128h-.12V92.86h1.176v8.64zm2.972 0v-8.64h1.056v2.08l-.208-.272a3 3 0 0 1 .376-.704q.231-.328.504-.536a2.3 2.3 0 0 1 .784-.448q.447-.16.904-.184.456-.032.832.064v1.104a2.9 2.9 0 0 0-1.032-.056 1.97 1.97 0 0 0-1.032.448 2.15 2.15 0 0 0-.648.808q-.216.465-.288.992-.072.52-.072 1.032v4.312zm11.984.24q-1.263 0-2.192-.56a3.8 3.8 0 0 1-1.432-1.576q-.512-1.016-.512-2.384 0-1.416.504-2.448t1.416-1.592q.92-.56 2.168-.56 1.281 0 2.184.592.904.585 1.368 1.68.465 1.096.424 2.616h-1.2v-.416q-.032-1.68-.728-2.536-.687-.855-2.016-.856-1.392 0-2.136.904-.735.904-.736 2.576 0 1.632.736 2.536.745.896 2.104.896.929 0 1.616-.424.697-.432 1.096-1.24l1.096.424a3.9 3.9 0 0 1-1.512 1.752q-.991.616-2.248.616m-3.304-4.232v-.984h6.6v.984zm18.757 3.992.008-5.672q0-1-.56-1.568-.552-.576-1.408-.576a2.2 2.2 0 0 0-.952.224 1.84 1.84 0 0 0-.768.72q-.296.496-.296 1.296l-.696-.2q-.024-.928.36-1.624a2.8 2.8 0 0 1 1.072-1.08 3.1 3.1 0 0 1 1.552-.392q1.305 0 2.088.808.784.8.784 2.168l-.008 5.896zm-10.312 0v-8.64h1.056v2.128h.128v6.512zm5.168 0 .008-5.592q0-1.033-.552-1.624-.543-.6-1.44-.6t-1.448.616q-.552.608-.552 1.624l-.704-.384q0-.832.392-1.488.393-.665 1.072-1.04a3.1 3.1 0 0 1 1.544-.384q.825 0 1.464.352.648.352 1.016 1.024t.368 1.632l-.008 5.864zm10.555.24q-.976 0-1.64-.352a2.4 2.4 0 0 1-.984-.936 2.55 2.55 0 0 1-.328-1.272q0-.705.28-1.2.288-.504.776-.824a3.9 3.9 0 0 1 1.144-.488q.656-.16 1.448-.28a36 36 0 0 1 1.56-.216 50 50 0 0 0 1.344-.184l-.416.256q.024-1.28-.496-1.896t-1.808-.616q-.888 0-1.504.4-.608.4-.856 1.264l-1.144-.336q.296-1.16 1.192-1.8t2.328-.64q1.184 0 2.008.448.833.44 1.176 1.28.16.375.208.84t.048.944v5.368h-1.048v-2.168l.304.128q-.44 1.112-1.368 1.696t-2.224.584m.136-1.016q.823 0 1.44-.296.616-.296.992-.808.376-.52.488-1.168.096-.416.104-.912.008-.504.008-.752l.448.232q-.6.08-1.304.16a37 37 0 0 0-1.376.184q-.672.105-1.216.248-.368.105-.712.296a1.64 1.64 0 0 0-.568.496q-.216.312-.216.776 0 .375.184.728a1.5 1.5 0 0 0 .608.584q.424.232 1.12.232m6.122-9.504V89.9h1.176v1.32zm0 10.28v-8.64h1.176v8.64zm3.415 0V89.74h1.176v11.76z"/><rect width="508" height="196" x=".5" y="140.5" stroke="#fcf9f9" stroke-opacity=".1" rx="8"/><path fill="#fcf9f9" fill-opacity=".5" d="M22.284 171.74q-1.72 0-2.904-.76-1.185-.768-1.792-2.12-.608-1.351-.608-3.12t.608-3.12 1.792-2.112q1.184-.768 2.904-.768 2.008 0 3.28 1.032 1.272 1.024 1.744 2.752l-1.2.312q-.367-1.368-1.32-2.168t-2.504-.8q-1.351 0-2.248.616-.896.616-1.352 1.72-.448 1.096-.464 2.536-.008 1.44.44 2.536.456 1.096 1.36 1.72.912.616 2.264.616 1.553 0 2.504-.8.953-.808 1.32-2.168l1.2.312q-.472 1.728-1.744 2.76-1.272 1.024-3.28 1.024m10.077 0q-1.288 0-2.2-.584a3.8 3.8 0 0 1-1.4-1.616q-.488-1.032-.488-2.368 0-1.36.496-2.384.495-1.024 1.408-1.592.921-.576 2.184-.576 1.296 0 2.208.584.92.576 1.4 1.608.488 1.024.488 2.36 0 1.36-.488 2.392a3.74 3.74 0 0 1-1.408 1.6q-.92.576-2.2.576m0-1.128q1.44 0 2.144-.952.704-.96.704-2.488 0-1.567-.712-2.496-.704-.928-2.136-.928-.967 0-1.6.44-.624.432-.936 1.208-.304.768-.304 1.776 0 1.56.72 2.504.72.936 2.12.936m15.845.888.008-5.672q0-1-.56-1.568-.553-.576-1.408-.576-.489 0-.952.224-.465.223-.768.72-.297.497-.296 1.296l-.696-.2q-.024-.928.36-1.624a2.8 2.8 0 0 1 1.072-1.08 3.1 3.1 0 0 1 1.552-.392q1.304 0 2.088.808.784.8.784 2.168l-.008 5.896zm-10.312 0v-8.64h1.056v2.128h.128v6.512zm5.168 0 .008-5.592q0-1.032-.552-1.624-.544-.6-1.44-.6-.897 0-1.448.616-.552.608-.552 1.624l-.704-.384q0-.833.392-1.488a2.8 2.8 0 0 1 1.072-1.04 3.1 3.1 0 0 1 1.544-.384q.824 0 1.464.352.648.352 1.016 1.024t.368 1.632l-.008 5.864zm18.386 0 .008-5.672q0-1-.56-1.568-.552-.576-1.408-.576-.487 0-.952.224-.463.223-.768.72-.296.497-.296 1.296l-.696-.2q-.024-.928.36-1.624a2.8 2.8 0 0 1 1.072-1.08 3.1 3.1 0 0 1 1.552-.392q1.305 0 2.088.808.784.8.784 2.168l-.008 5.896zm-10.312 0v-8.64h1.056v2.128h.128v6.512zm5.168 0 .008-5.592q0-1.032-.552-1.624-.543-.6-1.44-.6t-1.448.616q-.552.608-.552 1.624l-.704-.384q0-.833.392-1.488a2.8 2.8 0 0 1 1.072-1.04 3.1 3.1 0 0 1 1.544-.384q.825 0 1.464.352.648.352 1.016 1.024.369.672.368 1.632l-.008 5.864zm11.692.24q-1.264 0-2.192-.56a3.8 3.8 0 0 1-1.432-1.576q-.512-1.016-.512-2.384 0-1.416.504-2.448t1.416-1.592q.92-.56 2.168-.56 1.28 0 2.184.592.904.584 1.368 1.68t.424 2.616h-1.2v-.416q-.032-1.68-.728-2.536-.688-.856-2.016-.856-1.392 0-2.136.904-.736.904-.736 2.576 0 1.632.736 2.536.744.896 2.104.896.928 0 1.616-.424.696-.432 1.096-1.24l1.096.424a3.9 3.9 0 0 1-1.512 1.752q-.991.616-2.248.616m-3.304-4.232v-.984h6.6v.984zm14.693 3.992v-4.408q0-.72-.136-1.32a3 3 0 0 0-.44-1.056 2 2 0 0 0-.776-.704q-.473-.248-1.152-.248-.624 0-1.104.216a2.2 2.2 0 0 0-.8.624 2.8 2.8 0 0 0-.488.976 4.7 4.7 0 0 0-.168 1.312l-.832-.184q0-1.327.464-2.232.465-.905 1.28-1.368.816-.464 1.872-.464.776 0 1.352.24.584.24.984.648.407.408.656.936.248.52.36 1.112.112.584.112 1.168v4.752zm-6.248 0v-8.64h1.064v2.128h.12v6.512zm13.892 0a5.8 5.8 0 0 1-1.44.12 3.2 3.2 0 0 1-1.264-.304 1.82 1.82 0 0 1-.84-.848 2.5 2.5 0 0 1-.256-.968 35 35 0 0 1-.016-1.128v-7.912h1.168v7.864q0 .545.008.912.016.36.168.64.288.536.912.64.632.103 1.56-.048zm-5.664-7.632v-1.008h5.664v1.008zm10.27 7.864q-1.52 0-2.504-.656a2.73 2.73 0 0 1-1.2-1.824l1.2-.2q.192.737.872 1.176.688.432 1.696.432.985 0 1.552-.408.568-.416.568-1.128 0-.4-.184-.648-.176-.256-.728-.472t-1.648-.512q-1.176-.32-1.84-.64-.663-.32-.944-.736-.28-.424-.28-1.032 0-.736.416-1.288.417-.56 1.152-.864.736-.312 1.712-.312.975 0 1.744.32.777.312 1.248.88.473.568.56 1.32l-1.2.216a1.73 1.73 0 0 0-.76-1.2q-.631-.448-1.608-.464-.92-.024-1.496.352-.576.368-.576.984 0 .344.208.592.209.24.752.456.551.216 1.568.472 1.192.304 1.872.64t.968.792.288 1.128q0 1.224-.912 1.928-.903.696-2.496.696"/></svg>