<svg xmlns="http://www.w3.org/2000/svg" width="168" height="50" fill="none" viewBox="0 0 168 50"><rect width="167" height="49" x=".5" y=".5" stroke="#fcf9f9" stroke-opacity=".1" rx="14.5"/><path fill="#fcf9f9" d="M45.67 31.24q-1.728 0-2.944-.752-1.216-.76-1.864-2.112-.64-1.352-.64-3.136t.64-3.136q.648-1.352 1.864-2.104 1.216-.76 2.944-.76 1.72 0 2.936.76 1.224.752 1.864 2.104t.64 3.136q0 1.785-.64 3.136a4.9 4.9 0 0 1-1.864 2.112q-1.217.752-2.936.752m0-1.592q1.224.016 2.032-.536.816-.56 1.224-1.552.408-1 .408-2.32t-.408-2.304q-.408-.992-1.224-1.544-.808-.552-2.032-.56-1.224-.016-2.04.536-.808.552-1.216 1.552t-.416 2.32q-.009 1.32.4 2.312.408.984 1.224 1.536.824.552 2.048.56M52.065 31V19.48h4.656q.168 0 .416.016.249.008.472.048.96.152 1.6.656.648.504.968 1.272t.32 1.696q0 1.376-.704 2.376-.703.992-2.112 1.24l-.68.08h-3.264V31zm6.736 0-2.272-4.688 1.688-.432L60.713 31zm-5.064-5.72h2.92q.16 0 .352-.016.202-.016.376-.056.513-.12.824-.44.313-.329.448-.752.136-.424.136-.848 0-.425-.136-.84a1.9 1.9 0 0 0-.448-.744 1.6 1.6 0 0 0-.824-.448 2 2 0 0 0-.376-.064 4 4 0 0 0-.352-.016h-2.92zM61.832 31V19.48h3.608q.16 0 .592.008.44.008.84.064 1.351.168 2.272.968.927.8 1.4 2.032.471 1.224.472 2.688 0 1.472-.472 2.704-.473 1.223-1.4 2.024-.92.792-2.272.96a7 7 0 0 1-.84.064q-.433.008-.592.008zm1.712-1.592h1.896q.272 0 .648-.016t.664-.064q.88-.168 1.424-.76.552-.6.808-1.472.255-.872.256-1.856 0-1.016-.264-1.88-.264-.872-.816-1.456-.544-.592-1.408-.752a4 4 0 0 0-.672-.064q-.376-.016-.64-.016h-1.896zM72.239 31V19.48h7.36v1.576H73.91v3.232h4.728v1.576H73.91v3.56h5.688V31zm8.64 0V19.48h4.657q.168 0 .416.016.248.008.472.048.96.152 1.6.656.647.504.968 1.272t.32 1.696q0 1.376-.704 2.376-.705.992-2.112 1.24l-.68.08h-3.264V31zm6.737 0-2.272-4.688 1.688-.432L89.528 31zm-5.064-5.72h2.92q.16 0 .352-.016.2-.016.376-.056.512-.12.824-.44.312-.329.448-.752.136-.424.136-.848 0-.425-.136-.84a1.9 1.9 0 0 0-.448-.744 1.6 1.6 0 0 0-.824-.448 2 2 0 0 0-.376-.064 4 4 0 0 0-.352-.016h-2.92z"/><path fill="#ecd979" d="M122.824 25.967q-.195-1.466-.253-2.617a13.6 13.6 0 0 1 .089-2.025l-18.97 10.952-.897-1.554 18.97-10.952a17 17 0 0 1-1.82-.973 37 37 0 0 1-2.119-1.49l1.139-.658q3.61 1.518 6.603 1.517l.385.666q-1.519 2.555-1.988 6.477z"/></svg>