<svg xmlns="http://www.w3.org/2000/svg" width="168" height="50" fill="none" viewBox="0 0 168 50"><rect width="167" height="49" x=".5" y=".5" stroke="#fcf9f9" stroke-opacity=".1" rx="14.5"/><path fill="#fcf9f9" d="M50.038 31.24q-1.24 0-2.24-.424a4.3 4.3 0 0 1-1.64-1.224q-.64-.8-.832-1.896l1.744-.264q.264 1.056 1.104 1.648.84.584 1.96.584.695 0 1.28-.216.583-.224.936-.632.36-.416.36-.992a1.3 1.3 0 0 0-.408-.968 1.6 1.6 0 0 0-.456-.312 3.4 3.4 0 0 0-.584-.232l-2.952-.872a7 7 0 0 1-.88-.328 3.5 3.5 0 0 1-.824-.536 2.6 2.6 0 0 1-.6-.824q-.232-.495-.232-1.2 0-1.065.544-1.8.552-.744 1.488-1.12.936-.384 2.096-.384 1.167.016 2.088.416a3.95 3.95 0 0 1 1.536 1.152q.615.744.848 1.808l-1.792.304a2.35 2.35 0 0 0-.512-1.112 2.56 2.56 0 0 0-.96-.72 3.05 3.05 0 0 0-1.232-.264 3 3 0 0 0-1.176.192 2.1 2.1 0 0 0-.848.584q-.312.376-.312.864 0 .48.28.776t.688.472q.416.168.824.28l2.128.6q.4.112.904.304.511.184.984.52.48.336.792.896.312.552.312 1.392 0 .871-.352 1.536a3.25 3.25 0 0 1-.968 1.104 4.4 4.4 0 0 1-1.408.664 6.2 6.2 0 0 1-1.688.224m5.48-.24V19.48h7.36v1.576h-5.687v3.232h4.728v1.576H57.19v3.56h5.688V31zm8.642 0V19.48h1.696l5.672 8.56v-8.56h1.696V31h-1.696l-5.672-8.568V31zm10.657 0V19.48h3.608q.16 0 .592.008.44.008.84.064 1.351.168 2.272.968.927.8 1.4 2.032Q84 23.776 84 25.24q0 1.472-.472 2.704-.473 1.223-1.4 2.024-.92.792-2.272.96a7 7 0 0 1-.84.064q-.433.008-.592.008zm1.712-1.592h1.896q.272 0 .648-.016t.664-.064q.88-.168 1.424-.76.552-.6.808-1.472t.256-1.856q0-1.016-.264-1.88-.264-.872-.816-1.456-.544-.592-1.408-.752a4 4 0 0 0-.672-.064q-.376-.016-.64-.016h-1.896z"/><path fill="#ecd979" d="M117.824 25.968q-.195-1.467-.253-2.618a13.6 13.6 0 0 1 .089-2.025L98.69 32.277l-.897-1.554 18.97-10.952a17 17 0 0 1-1.82-.973 37 37 0 0 1-2.119-1.49l1.139-.658q3.61 1.518 6.603 1.517l.385.666q-1.519 2.555-1.988 6.477z"/></svg>